<svg xmlns="http://www.w3.org/2000/svg" viewBox="0 0 116 116" width="116" height="116">
  <defs>
    <linearGradient id="bg" x1="0" y1="0" x2="0" y2="1">
      <stop offset="0%" stop-color="#f3f7ff"/>
      <stop offset="100%" stop-color="#ffffff"/>
    </linearGradient>
  </defs>
  <rect x="4" y="4" width="108" height="108" rx="16" fill="url(#bg)" stroke="#82b366" stroke-width="2"/>
  <circle cx="58" cy="56" r="29" fill="#eef6ff" stroke="#6c8ebf" stroke-width="2"/>
  <circle cx="58" cy="56" r="8" fill="#ffffff" stroke="#243447" stroke-width="2"/>
  <path d="M58 56 L89 29" stroke="#82b366" stroke-width="4" stroke-linecap="round"/>
  <circle cx="58" cy="56" r="4" fill="#243447"/>
  <circle cx="89" cy="29" r="6" fill="#ff7f50" stroke="#8d6a00" stroke-width="2"/>
  <path d="M89 29 L82 31 M89 29 L87 36" stroke="#8d6a00" stroke-width="2" stroke-linecap="round"/>
  <path d="M58 56 L29 77" stroke="#d6b656" stroke-width="3" stroke-dasharray="4 3" stroke-linecap="round"/>
  <circle cx="29" cy="77" r="6" fill="#ffcc99" stroke="#8d6a00" stroke-width="2"/>
  <path d="M29 77 L23 75 M29 77 L26 71" stroke="#8d6a00" stroke-width="2" stroke-linecap="round"/>
  <path d="M58 56 L58 22" stroke="#6c8ebf" stroke-width="2" stroke-dasharray="3 3" stroke-linecap="round"/>
  <text x="89" y="22" text-anchor="middle" font-family="Verdana,Arial,sans-serif" font-size="10" font-weight="700" fill="#8d6a00">TIP</text>
  <text x="29" y="94" text-anchor="middle" font-family="Verdana,Arial,sans-serif" font-size="10" font-weight="700" fill="#8d6a00">CENTER</text>
  <text x="58" y="106" text-anchor="middle" font-family="Verdana,Arial,sans-serif" font-size="11" font-weight="700" fill="#2f5d87">KEYPOINTS</text>
</svg>
