<svg xmlns="http://www.w3.org/2000/svg" width="120" height="120" viewBox="0 0 120 120">
  <defs>
    <linearGradient id="bg" x1="0" y1="0" x2="1" y2="1">
      <stop offset="0%" stop-color="#f8f0fb"/>
      <stop offset="100%" stop-color="#ffffff"/>
    </linearGradient>
  </defs>
  <rect x="4" y="4" width="112" height="112" rx="16" fill="url(#bg)" stroke="#9673a6" stroke-width="2"/>
  <rect x="18" y="20" width="40" height="56" rx="6" fill="#ffffff" stroke="#9673a6" stroke-width="2"/>
  <path d="M48 20v12h10" fill="#f8f0fb" stroke="#9673a6" stroke-width="2"/>
  <path d="M26 46h16M26 54h16M26 62h14" stroke="#9673a6" stroke-width="2" stroke-linecap="round"/>
  <path d="M58 51h10" stroke="#d6b656" stroke-width="3" stroke-linecap="round"/>
  <path d="M68 51l-4-4M68 51l-4 4" stroke="#d6b656" stroke-width="3" stroke-linecap="round" stroke-linejoin="round"/>
  <rect x="68" y="28" width="34" height="50" rx="8" fill="#e1d5e7" stroke="#9673a6" stroke-width="2"/>
  <path d="M76 40h18" stroke="#c4b3cf" stroke-width="2" stroke-linecap="round"/>
  <path d="M80 50l4 4 10-12" fill="none" stroke="#82b366" stroke-width="3" stroke-linecap="round" stroke-linejoin="round"/>
  <text x="85" y="61" text-anchor="middle" font-family="Verdana,Arial,sans-serif" font-size="14" font-weight="700" fill="#7e5c8b">31.7</text>
  <text x="85" y="72" text-anchor="middle" font-family="Verdana,Arial,sans-serif" font-size="10" font-weight="700" fill="#7e5c8b">C</text>
  <text x="60" y="104" text-anchor="middle" font-family="Verdana,Arial,sans-serif" font-size="11" font-weight="700" fill="#7e5c8b">OUTPUT</text>
</svg>
