<svg xmlns="http://www.w3.org/2000/svg" width="120" height="120" viewBox="0 0 120 120">
  <defs>
    <linearGradient id="bg" x1="0" y1="0" x2="1" y2="1">
      <stop offset="0%" stop-color="#fff8e8"/>
      <stop offset="100%" stop-color="#ffffff"/>
    </linearGradient>
  </defs>
  <rect x="4" y="4" width="112" height="112" rx="16" fill="url(#bg)" stroke="#d6b656" stroke-width="2"/>
  <circle cx="60" cy="52" r="22" fill="#eef6ff" stroke="#6c8ebf" stroke-width="2"/>
  <path d="M38 30h14M38 30v14M82 30h-14M82 30v14M38 74h14M38 74v-14M82 74h-14M82 74v-14" stroke="#d6b656" stroke-width="4" stroke-linecap="round"/>
  <rect x="28" y="22" width="64" height="64" rx="8" fill="none" stroke="#82b366" stroke-width="2" stroke-dasharray="5 4"/>
  <path d="M28 43h-8M28 43v8M92 43h8M92 43v8M28 65h-8M28 65v-8M92 65h8M92 65v-8" stroke="#82b366" stroke-width="2" stroke-linecap="round"/>
  <path d="M56 52l8 8 18-18" fill="none" stroke="#82b366" stroke-width="3" stroke-linecap="round" stroke-linejoin="round"/>
  <text x="60" y="104" text-anchor="middle" font-family="Verdana,Arial,sans-serif" font-size="11" font-weight="700" fill="#8d6a00">CROP</text>
</svg>
